HIERARCHY
ROOT Hips
{
	OFFSET -14.64140 90.27770 -84.91600
	CHANNELS 6 Xposition Yposition Zposition Zrotation Xrotation Yrotation
	JOINT Spine
	{
		OFFSET 0.00000 13.20850 -1.60436
		CHANNELS 3 Zrotation Xrotation Yrotation
		JOINT Spine1
		{
			OFFSET 0.00000 8.61716 0.00000
			CHANNELS 3 Zrotation Xrotation Yrotation
			JOINT Spine2
			{
				OFFSET 0.00000 8.61717 0.00000
				CHANNELS 3 Zrotation Xrotation Yrotation
				JOINT Spine3
				{
					OFFSET 0.00000 8.61717 0.00000
					CHANNELS 3 Zrotation Xrotation Yrotation
					JOINT Neck
					{
						OFFSET 0.00000 11.07920 1.10792
						CHANNELS 3 Zrotation Xrotation Yrotation
						JOINT Neck1
						{
							OFFSET 0.00000 7.08032 0.00000
							CHANNELS 3 Zrotation Xrotation Yrotation
							JOINT Head
							{
								OFFSET 0.00000 7.08031 0.00000
								CHANNELS 3 Zrotation Xrotation Yrotation
								End site
								{
									OFFSET 0.00000 0.00000 0.00000
								}
							}
						}
					}
					JOINT RightShoulder
					{
						OFFSET -0.01000 7.91373 5.19711
						CHANNELS 3 Zrotation Xrotation Yrotation
						JOINT RightArm
						{
							OFFSET -18.41580 0.00000 0.00000
							CHANNELS 3 Zrotation Xrotation Yrotation
							JOINT RightForeArm
							{
								OFFSET -29.11090 0.00000 0.00000
								CHANNELS 3 Zrotation Xrotation Yrotation
								JOINT RightHand
								{
									OFFSET -24.65040 0.00000 0.00000
									CHANNELS 3 Zrotation Xrotation Yrotation
									JOINT RightHandThumb1
									{
										OFFSET -5.35114 -0.85590 3.97906
										CHANNELS 3 Zrotation Xrotation Yrotation
										JOINT RightHandThumb2
										{
											OFFSET -4.52789 0.00000 0.00000
											CHANNELS 3 Zrotation Xrotation Yrotation
											JOINT RightHandThumb3
											{
												OFFSET -2.46976 0.00000 0.00000
												CHANNELS 3 Zrotation Xrotation Yrotation
												End site
												{
													OFFSET 0.00000 0.00000 0.00000
												}
											}
										}
									}
									JOINT RightHandIndex1
									{
										OFFSET -14.26970 0.00000 2.88139
										CHANNELS 3 Zrotation Xrotation Yrotation
										JOINT RightHandIndex2
										{
											OFFSET -5.48836 0.00000 0.00000
											CHANNELS 3 Zrotation Xrotation Yrotation
											JOINT RightHandIndex3
											{
												OFFSET -3.01859 0.00000 0.00000
												CHANNELS 3 Zrotation Xrotation Yrotation
												End site
												{
													OFFSET 0.00000 0.00000 0.00000
												}
											}
										}
									}
									JOINT RightHandMiddle1
									{
										OFFSET -14.26970 0.00000 -0.09147
										CHANNELS 3 Zrotation Xrotation Yrotation
										JOINT RightHandMiddle2
										{
											OFFSET -6.17441 0.00000 0.00000
											CHANNELS 3 Zrotation Xrotation Yrotation
											JOINT RightHandMiddle3
											{
												OFFSET -3.56743 0.00000 0.00000
												CHANNELS 3 Zrotation Xrotation Yrotation
												End site
												{
													OFFSET 0.00000 0.00000 0.00000
												}
											}
										}
									}
									JOINT RightHandRing1
									{
										OFFSET -12.69180 0.00000 -3.06433
										CHANNELS 3 Zrotation Xrotation Yrotation
										JOINT RightHandRing2
										{
											OFFSET -5.62556 0.00000 0.00000
											CHANNELS 3 Zrotation Xrotation Yrotation
											JOINT RightHandRing3
											{
												OFFSET -3.56744 0.00000 0.00000
												CHANNELS 3 Zrotation Xrotation Yrotation
												End site
												{
													OFFSET 0.00000 0.00000 0.00000
												}
											}
										}
									}
									JOINT RightHandPinky1
									{
										OFFSET -11.11390 0.00000 -6.03719
										CHANNELS 3 Zrotation Xrotation Yrotation
										JOINT RightHandPinky2
										{
											OFFSET -4.52789 0.00000 0.00000
											CHANNELS 3 Zrotation Xrotation Yrotation
											JOINT RightHandPinky3
											{
												OFFSET -2.46976 0.00000 0.00000
												CHANNELS 3 Zrotation Xrotation Yrotation
												End site
												{
													OFFSET 0.00000 0.00000 0.00000
												}
											}
										}
									}
								}
							}
						}
					}
					JOINT LeftShoulder
					{
						OFFSET 0.01000 7.91373 5.19711
						CHANNELS 3 Zrotation Xrotation Yrotation
						JOINT LeftArm
						{
							OFFSET 18.41580 0.00000 0.00000
							CHANNELS 3 Zrotation Xrotation Yrotation
							JOINT LeftForeArm
							{
								OFFSET 29.11090 0.00000 0.00000
								CHANNELS 3 Zrotation Xrotation Yrotation
								JOINT LeftHand
								{
									OFFSET 24.65040 0.00000 0.00000
									CHANNELS 3 Zrotation Xrotation Yrotation
									JOINT LeftHandThumb1
									{
										OFFSET 5.35114 -0.85590 3.97906
										CHANNELS 3 Zrotation Xrotation Yrotation
										JOINT LeftHandThumb2
										{
											OFFSET 4.52789 0.00000 0.00000
											CHANNELS 3 Zrotation Xrotation Yrotation
											JOINT LeftHandThumb3
											{
												OFFSET 2.46977 0.00000 0.00000
												CHANNELS 3 Zrotation Xrotation Yrotation
												End site
												{
													OFFSET 0.00000 0.00000 0.00000
												}
											}
										}
									}
									JOINT LeftHandIndex1
									{
										OFFSET 14.26970 0.00000 2.88139
										CHANNELS 3 Zrotation Xrotation Yrotation
										JOINT LeftHandIndex2
										{
											OFFSET 5.48836 0.00000 0.00000
											CHANNELS 3 Zrotation Xrotation Yrotation
											JOINT LeftHandIndex3
											{
												OFFSET 3.01859 0.00000 0.00000
												CHANNELS 3 Zrotation Xrotation Yrotation
												End site
												{
													OFFSET 0.00000 0.00000 0.00000
												}
											}
										}
									}
									JOINT LeftHandMiddle1
									{
										OFFSET 14.26970 0.00000 -0.09147
										CHANNELS 3 Zrotation Xrotation Yrotation
										JOINT LeftHandMiddle2
										{
											OFFSET 6.17440 0.00000 0.00000
											CHANNELS 3 Zrotation Xrotation Yrotation
											JOINT LeftHandMiddle3
											{
												OFFSET 3.56744 0.00000 0.00000
												CHANNELS 3 Zrotation Xrotation Yrotation
												End site
												{
													OFFSET 0.00000 0.00000 0.00000
												}
											}
										}
									}
									JOINT LeftHandRing1
									{
										OFFSET 12.69180 0.00000 -3.06433
										CHANNELS 3 Zrotation Xrotation Yrotation
										JOINT LeftHandRing2
										{
											OFFSET 5.62556 0.00000 0.00000
											CHANNELS 3 Zrotation Xrotation Yrotation
											JOINT LeftHandRing3
											{
												OFFSET 3.56744 0.00000 0.00000
												CHANNELS 3 Zrotation Xrotation Yrotation
												End site
												{
													OFFSET 0.00000 0.00000 0.00000
												}
											}
										}
									}
									JOINT LeftHandPinky1
									{
										OFFSET 11.11390 0.00000 -6.03719
										CHANNELS 3 Zrotation Xrotation Yrotation
										JOINT LeftHandPinky2
										{
											OFFSET 4.52789 0.00000 0.00000
											CHANNELS 3 Zrotation Xrotation Yrotation
											JOINT LeftHandPinky3
											{
												OFFSET 2.46976 0.00000 0.00000
												CHANNELS 3 Zrotation Xrotation Yrotation
												End site
												{
													OFFSET 0.00000 0.00000 0.00000
												}
											}
										}
									}
								}
							}
						}
					}
					JOINT pCube4
					{
						OFFSET 0.00000 10.91090 1.10792
						CHANNELS 3 Zrotation Xrotation Yrotation
						End site
						{
							OFFSET 0.00000 0.00000 0.00000
						}
					}
				}
			}
		}
	}
	JOINT RightUpLeg
	{
		OFFSET -9.98441 0.00000 0.00000
		CHANNELS 3 Zrotation Xrotation Yrotation
		JOINT RightLeg
		{
			OFFSET 0.00000 -42.11790 0.00000
			CHANNELS 3 Zrotation Xrotation Yrotation
			JOINT RightFoot
			{
				OFFSET 0.00000 -45.00020 -0.00001
				CHANNELS 3 Zrotation Xrotation Yrotation
				JOINT RightForeFoot
				{
					OFFSET 0.00000 -3.74820 0.00000
					CHANNELS 3 Zrotation Xrotation Yrotation
					JOINT RightToeBase
					{
						OFFSET 0.00000 0.06325 14.43120
						CHANNELS 3 Zrotation Xrotation Yrotation
						End site
						{
							OFFSET 0.00000 0.00000 0.00000
						}
					}
				}
			}
		}
	}
	JOINT LeftUpLeg
	{
		OFFSET 9.98441 0.00000 0.00000
		CHANNELS 3 Zrotation Xrotation Yrotation
		JOINT LeftLeg
		{
			OFFSET 0.00000 -42.11800 0.00000
			CHANNELS 3 Zrotation Xrotation Yrotation
			JOINT LeftFoot
			{
				OFFSET 0.00000 -45.00070 0.00000
				CHANNELS 3 Zrotation Xrotation Yrotation
				JOINT LeftForeFoot
				{
					OFFSET 0.00000 -3.74824 0.00000
					CHANNELS 3 Zrotation Xrotation Yrotation
					JOINT LeftToeBase
					{
						OFFSET 0.00000 0.06325 14.43110
						CHANNELS 3 Zrotation Xrotation Yrotation
						End site
						{
							OFFSET 0.00000 0.00000 0.00000
						}
					}
				}
			}
		}
	}
}
MOTION
Frames: 4
Frame Time: 0.050000
0.043719276734336815 -0.031150572471044236 -0.012510596743538877 -0.047958228219931294 -0.015830105920307386 0.02600336497130509 -1.2933452888277663 1.676999378489972 -0.9879975955002782 -0.9267054374156971 3.9402461844636156 0.35885435672235344 -1.221266703201851 -1.9214282753245613 -0.3616359660323019 0.558440273179192 0.6244864511368258 -0.6498328201732885 0.6877876862480862 14.494952292171941 -2.4891018466825945 0.15602558244016304 0.26741105226766215 -7.642780053443037 1.1137935738395814 -15.013550644274288 -0.5971714973405069 -6.047492933064748 2.028033858955028 -14.812413535943532 72.74064131656478 28.928755358758796 7.953708922020419 2.659303549448135 2.3711820599206646 66.89728977197204 21.6862979847153 -0.43371863122391263 -4.3740976796588775 4.526124915217982 -0.09743928599753109 -1.6110813198394578 0.0011135179607780314 -0.007330678551594242 -56.225310373192514 -0.014833213030834508 0.046617806505605854 -56.22445147206043 -38.795215361059164 0.03699474782513852 -0.012531942954680316 0.027267255294018147 0.026048474304136746 -0.00612566367485535 0.019637000344073546 0.00017784995544572717 0.0023171054460061707 -36.651188278174345 -0.04122852307362519 0.007760159060921363 -0.020278923560878123 0.0101703286403438 -0.013931769262538671 0.01788734016132332 0.012837274737702808 0.011065787289848576 -19.734663248259093 -0.046295609424881264 -0.041838039775443946 0.01996469511027109 -0.011267251698537007 -0.04428381174683017 0.045684912124461415 0.01791622608689732 0.014732360276013485 24.067369481754273 0.014480630779477248 0.013051485777431274 28.82917709512585 0.03026919788920896 -0.015791651311804315 28.909710854082718 -0.008476183418479881 0.025332749222565364 5.9009607336545935 1.4800529052558677 13.219302994883854 -68.8103739778171 29.637505628120095 -7.525747594501389 3.663364479207943 -9.988436887034673 -56.43782520286547 -10.94264348928657 -0.36049937997264736 2.133934696370511 -0.494690294350268 0.082386011337778 -8.113688668545988 0.03557879020066976 0.012243686899652726 44.587464562389066 -0.0026065639529538973 0.030508445042462008 44.61303346098114 12.412945056373053 0.036982284914978104 -0.03211647634140614 0.0226786700227589 -0.016739345206997325 0.016933707256961097 0.0464003968168203 -0.019194273382353015 0.002405670277977734 11.098565284448924 -0.026062979086199853 0.017158979266660882 0.023075355377736903 0.006340134988463172 -0.019368427607529614 0.0196990008481139 -0.040585398657379944 -0.035048402885225836 4.7449570223397854 0.03268907562029398 0.01421737140823513 -0.045747573894355055 -0.03526068808048969 0.005111834376951054 0.03514334436772563 -0.02659723521972222 0.04824229951832727 -5.594365983533223 0.027792200503817803 0.04941463555367934 -6.683116122356284 0.0360932584089207 0.039197979369742106 -6.6834941420303515 0.043504065360230965 0.0012095305016988382 0.022295590645455585 -0.041165538729714034 -0.03000552504265009 8.060344753658784 3.538023444269982 -19.25165876331665 -0.012749583066139394 10.385828299561457 0.015694053226565096 -5.572709939771291 -15.675504739852508 3.203462364333074 -0.022328869942854913 0.015535760745479 -0.0226812670719412 0.04750093270001638 4.724590398035014 0.031081622588706937 12.44611016407412 -8.247664444286958 6.8813521910054485 -0.044530935121496126 46.35703989481862 -0.004159773872457428 -4.369455645169324 -14.758569067276321 -3.8207029000188006 0.04315303399917002 0.007120729468314853 0.02882250635165613 -0.011322750579076214 -10.754342661533222 -0.010707798173842273 
0.02879789744965844 -0.034768617823719386 0.03967388314298434 -0.02959809722303554 0.041354621742741945 0.03977752154224183 -1.0146319245270197 1.5232216558730916 -1.0098718416523027 -0.9330884889196269 3.9212025557028656 0.3956011610139053 -1.1553163563422217 -1.9706560366334345 -0.34745779153607953 0.6149425996775122 0.5663977543487765 -0.7071181035087409 0.785219455404717 14.540721906547134 -2.7935502795185094 0.18058880727065701 0.3083756321433463 -8.361188111986545 1.184587917147643 -15.099726524280703 -0.6273364920862096 -6.461779396536893 2.074521638705594 -14.986763301368715 73.17145087260941 28.918805703975504 7.896324832071063 2.603375648962519 2.2666337427197303 66.27111309818991 21.560251382567042 -0.3951533220934004 -4.3518978543941875 4.54590162781564 -0.08808226296084257 -1.5707217164773775 0.04015830792585998 0.00490148829593632 -56.21273229617117 -0.024233205689937604 0.008175002475360972 -56.22329353798469 -38.77893739178461 0.035861272394899286 -0.0374448876352768 0.03163745719197595 0.02117111570858175 -0.016925269869488228 0.03409462193960017 0.04452126051674285 0.010492956317213012 -36.66399629449892 0.006407251659951055 -0.04284809260743779 0.04317152956796867 -0.008560493736135367 0.02325157793433143 -0.0025392685161729676 0.011876381559438357 -0.027360006122587103 -19.722467078353716 0.036377837358103085 0.031865389139288124 0.02186563855696057 0.01787824043114632 -0.0023152078798442375 0.01951208441940795 0.04417382951787528 0.02140745768824666 24.078391621229045 -0.03799804613251061 0.03514744968196028 28.826947961667486 -0.046139003740120574 0.028743731372567922 28.84888249021451 0.0056459170951390966 -0.0023015813115447046 6.004284185044592 1.4791861287195285 13.298659296695035 -69.21593716897553 29.64969344371543 -7.075528995047364 3.5739080886767023 -9.485876176844846 -54.84479694388202 -11.238634531140969 -0.33397385055122075 2.0976953582304714 -0.4708970921138659 0.11381324393227024 -8.169982237611771 0.02360534945041277 0.003456297930660322 44.5639943865882 -0.025332414498618505 -0.0379053739236322 44.54504201661693 12.477432929861713 -0.04620935590016115 0.02478967021306272 -0.037806434446261646 -0.029498988512760914 0.0012723883389015663 -0.024594683552822835 0.040617862213398456 -0.02612383377747144 11.086407531864415 -0.007181896379726753 -0.020241130408900593 0.03990174235093283 -0.017838194100239787 -0.019271121522704614 -0.014047850761691034 0.005552019974831451 -0.006556378130929848 4.731506839146515 0.02984161657022997 0.004840509753243213 -0.00762465011349786 -0.02280695469071531 0.027409477809617937 -0.043689311635241104 -0.005749098637780409 -0.029389481256563613 -5.614778945578338 0.038888278409595724 -0.021327373410633985 -6.754660463789527 -0.009845119607062903 -0.04130020284551253 -6.76218449396254 -0.025269340077496684 -0.003454516031468332 0.02817958284868598 0.04501606476589715 -0.01856063772235611 8.066877051056414 3.4632072066004462 -19.192722257049162 -0.043985028546967474 10.416457837983145 0.05474448470104745 -5.644242122094241 -15.653389832160135 3.155478437288573 -0.01020089699493422 0.01960904044198369 -0.028611601162628567 -0.044117376181914233 4.691102790175556 -0.04694376638675342 12.42417370710773 -8.269793122314477 6.905536630294489 0.04315670447288355 46.4099036048161 -0.025406700504222994 -4.275549462910115 -14.703378471373984 -3.8659646957300797 -0.011723065747687172 0.03852701191448076 0.04006498380097397 0.042277923885019664 -10.734294747215602 -0.013687019465668266 
0.02519181019882218 -0.01632257769089154 0.04777144339714854 0.013974348978556478 -0.03290629789091412 0.015528470593417432 -0.7177498553378329 1.4853409381257443 -1.08129491757378 -0.9116840517279224 3.9231148265909135 0.3588596538395824 -1.211881594297563 -1.9311566840170604 -0.23716843596245873 0.6694396728988468 0.6273544537440386 -0.6887277012340418 0.8213197678298355 14.54948010086382 -3.127498974964541 0.17368540802849142 0.27409032923615745 -9.078440738633933 1.2409585095341296 -15.127862721833583 -0.7203657833763766 -6.77394967146632 2.2384597201269445 -15.103337846869751 73.23009576352416 29.114452163820776 8.144649967578323 2.749999626238496 2.2688736162426273 66.15709742688261 21.508195265337353 -0.3477744470741684 -4.3492321493782535 4.503967258506511 -0.1018677071741111 -1.5513566687373082 0.03614425927473432 0.04024754351810977 -56.26488147724719 -0.018205340970716237 -0.0019424932248775077 -56.23924168939869 -38.780482432452466 -0.048830258385115004 -0.03278114730050301 -0.03410464582053191 0.021405194147355384 -0.010845909565705001 0.026075290563053376 0.015317385140621125 -0.033957997603847725 -36.695480089083816 -0.0139583288239792 -0.006747529972983794 -0.02180481154591545 0.002716716809992355 0.007351888911974519 -0.013482444735637578 0.039255823902221876 -0.0033533889788073773 -19.764657267522388 0.02477044676218373 -0.04359128073751483 -0.0212466494334205 0.03036401112565131 -0.019950801884042184 0.03694826607043373 -0.00928063324644099 -0.013853091870776026 24.082561121318534 -0.020412698359637983 -0.0038264653532503745 28.887359581417414 0.0161616172683827 -0.015624633285210207 28.83640996133566 0.009572160229482226 0.013049377859601257 6.072036604309389 1.4469200284894914 13.33050435717541 -69.5861964596969 29.74088148298577 -6.405723695189733 3.232068366814011 -8.906368303230305 -53.2778306815564 -11.777971947615587 -0.1655992832339277 2.054664114344916 -0.49252400985915595 0.09902141276960105 -8.134129415466395 -0.04824434908883313 -0.013689010679058028 44.5748945345051 -0.0019189467705654877 -0.04786191355656374 44.59300225129226 12.494339831046924 0.001306715556442443 0.017095181909062694 -0.005430049142209581 0.01635603390380981 0.023554300871046423 -0.03748997217931874 -0.040335232886715484 0.049524035883358915 11.102837342159239 -0.037801068131417745 -0.01655199001436517 0.03968797775962242 -0.016666306726864685 -0.017220010707361608 -0.017511432075705956 -0.00588513719754153 -0.03181736774360823 4.7279345541068585 0.021600277421712756 -0.02392974528421601 0.01912273241634561 -0.018398813897521443 0.005488555709638851 0.04447053783639203 0.04457368925050414 0.04996043169932976 -5.5760353339537705 0.00354704847706525 0.046291455479236174 -6.761751279679362 0.024084100649240114 -0.0425400215933049 -6.675051535624142 0.01769086587190039 0.01713071281277511 -0.028924852005180697 -0.019844938345501873 -0.02483982108137543 8.00548727319354 3.457946451557332 -19.246532475309508 0.028028132396247483 10.424242622031203 -0.013250296011383368 -5.646617103798539 -15.686626603318315 3.157493554827256 -0.007844800568818755 0.006683109925204745 0.013509784517146309 -0.030390483467938628 4.7119014926332365 -0.017014674360030468 12.435319482510607 -8.26114273585469 6.929909729433023 -0.0411841322519514 46.34080954973138 0.006126993544825509 -4.285585539909056 -14.748852698474309 -3.8387270057641985 -0.02276158166104272 0.009136269807046876 -0.01868150827658616 -0.02174316308210691 -10.728690575817238 -0.03274408567635372 
-0.03436539568156907 -0.004150334714122863 0.02952229506131361 -0.004777056176809954 -0.024056467717201692 0.017136338627118296 -0.5036548203411438 1.423284354997711 -1.133367115159332 -0.923857435876257 3.946247529999873 0.33095992777483774 -1.2271198351713941 -1.9247627927202258 -0.09103800497273071 0.7462003567229878 0.5590253627566742 -0.6045461704946427 0.920228243795312 14.530279908308557 -3.347133084233315 0.1848220419598827 0.2739353602710022 -9.731293660113286 1.3173766289806514 -15.211201057994112 -0.7963661626598769 -6.919750099229588 2.2462495274556376 -15.241263208183172 73.35585492879319 29.27403698822629 8.233952768639261 1.7753567382566149 2.1192803033600205 66.11381022443966 21.590953247483466 -0.3824579308416042 -4.432300449071722 4.539014071535388 -0.12289466623126194 -1.6028901988322353 0.018737529302149086 0.006371216847671135 -56.219509665729404 0.0357332991770737 -0.021999103661084297 -56.254968889153716 -38.7483470871563 0.022824558723598846 0.038630545782912806 -0.022190991363427705 -0.037505573366506006 -0.046237923386252294 -0.0067768112856803585 -0.004620687868228605 -0.014671843968515006 -36.68821197924249 -0.033807209120158575 0.04885409898842899 -0.012776312505210533 0.014885732128759648 -0.03980677669818556 -0.012888318063748254 0.01680079204404892 0.0011080384603132055 -19.789952101007987 -0.0347046289990459 -0.025160868632042584 0.006189585508547896 0.0004130572746143458 -0.01300566884630967 0.01412963895071224 0.01876475914849903 -0.0015365726906292287 24.049832018070227 -0.01948008519451543 0.004950912238733501 28.856346975924957 0.0415798082653759 -0.013306096858849628 28.819051784065856 -0.004269304889665799 0.02482701978275668 5.996982377279892 1.51595004162878 13.338179171561668 -70.00679959774956 29.889559948986644 -5.599763513145841 2.7691286361675496 -8.21673279656557 -51.84144706433247 -12.335689178758889 -0.15461248620382517 2.1300989844450307 -0.45344559032228376 0.033085555754157024 -8.124528177116504 0.005723377212612287 0.014953954164579527 44.537971183294424 0.03452214028552071 -0.008475512516659189 44.60964118567576 12.43012661750366 0.03633191721802717 0.030752923968445783 0.002320436749280836 0.009630257389033812 0.04990970668245892 -0.007332166778768945 0.006849032790207981 0.00380761162807811 11.096409979765662 0.028463169017657455 -0.027261640244959032 -0.028442036637497444 0.03593221142286866 -0.04630694134718856 -0.0023144542413066943 -0.0483984257055116 0.0011528421379869017 4.79337983496014 0.0007838495226507883 0.04972960620925397 -0.004814448689004076 -0.008969591004785568 -0.025972708070681454 0.014665168215278818 -0.048201612782645196 -0.026483955414332613 -5.601824854183196 0.019040749563234025 -0.008201527815573437 -6.706072735201446 -0.005039137228274957 0.014209711349543687 -6.72261832966274 -0.0003189910040422215 -0.04594920301004206 -0.012497242023392582 0.007318140663438946 0.007559957419794223 8.001532093779955 3.5365426557982675 -19.17937736086367 -0.03657804433205432 10.393351475626098 -0.0041215995092101915 -5.594662711349462 -15.698863676753916 3.165659674586453 0.04211162688072923 -0.006181894942822856 -0.011636982558339734 0.016399586034858415 4.680159784177075 -0.018449698291932562 12.507099665340254 -8.213849384778674 6.885995478546952 -0.012520776119014388 46.39638678364579 0.03333151767476457 -4.289185455770745 -14.750985571963014 -3.796745590723075 -0.04738826188543818 0.04481147040719845 0.007866016261279958 0.01954898262074726 -10.742162083589697 0.002263613546924295 
